P3
14 22
255
255
255
255
255
255
255
255
255
255
255
255
255
255
255
255
255
255
255
255
255
255
255
255
255
255
255
255
255
255
255
255
255
255
255
255
255
255
255
255
255
255
255
255
255
255
255
255
255
255
255
255
255
255
255
255
255
255
255
255
255
255
255
255
255
255
255
255
255
255
255
255
255
255
255
255
255
255
255
255
255
255
255
255
255
255
255
255
255
255
255
255
255
255
255
255
255
255
255
255
255
255
255
255
255
255
255
255
255
255
255
255
255
255
255
255
255
255
255
255
255
255
255
255
255
255
255
255
255
255
255
255
255
255
255
255
255
255
255
255
255
255
255
255
255
255
255
255
255
255
255
255
255
255
255
255
255
255
255
255
255
255
255
255
255
255
255
255
255
255
255
255
255
255
255
255
255
255
255
255
255
255
255
255
255
255
255
255
255
255
0
0
0
0
0
0
255
255
255
255
255
255
255
255
255
255
255
255
255
255
255
255
255
255
255
255
255
255
255
255
255
255
255
255
255
255
255
255
255
255
255
255
0
0
0
0
0
0
255
255
255
255
255
255
255
255
255
255
255
255
255
255
255
255
255
255
255
255
255
255
255
255
255
255
255
255
255
255
255
255
255
255
255
255
0
0
0
0
0
0
255
255
255
255
255
255
255
255
255
255
255
255
255
255
255
255
255
255
255
255
255
255
255
255
255
255
255
255
255
255
255
255
255
255
255
255
0
0
0
0
0
0
255
255
255
255
255
255
255
255
255
255
255
255
255
255
255
255
255
255
222
222
222
79
79
79
11
11
11
15
15
15
99
99
99
243
243
243
0
0
0
0
0
0
255
255
255
255
255
255
255
255
255
255
255
255
255
255
255
236
236
236
28
28
28
0
0
0
0
0
0
0
0
0
0
0
0
78
78
78
0
0
0
0
0
0
255
255
255
255
255
255
255
255
255
255
255
255
255
255
255
118
118
118
0
0
0
35
35
35
201
201
201
249
249
249
199
199
199
33
33
33
0
0
0
0
0
0
255
255
255
255
255
255
255
255
255
255
255
255
255
255
255
40
40
40
0
0
0
185
185
185
255
255
255
255
255
255
255
255
255
183
183
183
0
0
0
0
0
0
255
255
255
255
255
255
255
255
255
255
255
255
255
255
255
7
7
7
0
0
0
246
246
246
255
255
255
255
255
255
255
255
255
245
245
245
0
0
0
0
0
0
255
255
255
255
255
255
255
255
255
255
255
255
255
255
255
7
7
7
0
0
0
246
246
246
255
255
255
255
255
255
255
255
255
245
245
245
0
0
0
0
0
0
255
255
255
255
255
255
255
255
255
255
255
255
255
255
255
40
40
40
0
0
0
185
185
185
255
255
255
255
255
255
255
255
255
183
183
183
0
0
0
0
0
0
255
255
255
255
255
255
255
255
255
255
255
255
255
255
255
118
118
118
0
0
0
36
36
36
201
201
201
250
250
250
200
200
200
33
33
33
0
0
0
0
0
0
255
255
255
255
255
255
255
255
255
255
255
255
255
255
255
236
236
236
28
28
28
0
0
0
0
0
0
0
0
0
0
0
0
78
78
78
0
0
0
0
0
0
255
255
255
255
255
255
255
255
255
255
255
255
255
255
255
255
255
255
222
222
222
78
78
78
11
11
11
18
18
18
100
100
100
242
242
242
0
0
0
0
0
0
255
255
255
255
255
255
255
255
255
255
255
255
255
255
255
255
255
255
255
255
255
255
255
255
255
255
255
255
255
255
255
255
255
255
255
255
255
255
255
255
255
255
255
255
255
255
255
255
255
255
255
255
255
255
255
255
255
255
255
255
255
255
255
255
255
255
255
255
255
255
255
255
255
255
255
255
255
255
255
255
255
255
255
255
255
255
255
255
255
255
255
255
255
255
255
255
255
255
255
255
255
255
255
255
255
255
255
255
255
255
255
255
255
255
255
255
255
255
255
255
255
255
255
255
255
255
255
255
255
255
255
255
255
255
255
255
255
255
255
255
255
255
255
255
255
255
255
255
255
255
255
255
255
255
255
255
255
255
255
255
255
255
255
255
255
255
255
255
255
255
255
255
255
255
255
255
255
255
255
255
255
255
255
