P3
14 22
255
255
255
255
255
255
255
255
255
255
255
255
255
255
255
255
255
255
255
255
255
255
255
255
255
255
255
255
255
255
255
255
255
255
255
255
255
255
255
255
255
255
255
255
255
255
255
255
255
255
255
255
255
255
255
255
255
255
255
255
255
255
255
255
255
255
255
255
255
255
255
255
255
255
255
255
255
255
255
255
255
255
255
255
255
255
255
255
255
255
255
255
255
255
255
255
255
255
255
255
255
255
255
255
255
255
255
255
255
255
255
255
255
255
255
255
255
255
255
255
255
255
255
255
255
255
255
255
255
255
255
255
255
255
255
255
255
255
255
255
255
255
255
255
255
255
255
255
255
255
255
255
255
255
255
255
255
255
255
255
255
255
255
255
255
255
255
255
255
255
255
255
220
220
220
77
77
77
11
11
11
14
14
14
98
98
98
242
242
242
0
0
0
0
0
0
255
255
255
255
255
255
255
255
255
255
255
255
255
255
255
235
235
235
25
25
25
0
0
0
0
0
0
0
0
0
0
0
0
77
77
77
0
0
0
0
0
0
255
255
255
255
255
255
255
255
255
255
255
255
255
255
255
116
116
116
0
0
0
36
36
36
201
201
201
249
249
249
201
201
201
35
35
35
0
0
0
0
0
0
255
255
255
255
255
255
255
255
255
255
255
255
255
255
255
39
39
39
0
0
0
186
186
186
255
255
255
255
255
255
255
255
255
185
185
185
0
0
0
0
0
0
255
255
255
255
255
255
255
255
255
255
255
255
255
255
255
7
7
7
0
0
0
246
246
246
255
255
255
255
255
255
255
255
255
245
245
245
0
0
0
0
0
0
255
255
255
255
255
255
255
255
255
255
255
255
255
255
255
7
7
7
0
0
0
246
246
246
255
255
255
255
255
255
255
255
255
245
245
245
0
0
0
0
0
0
255
255
255
255
255
255
255
255
255
255
255
255
255
255
255
39
39
39
0
0
0
187
187
187
255
255
255
255
255
255
255
255
255
186
186
186
0
0
0
0
0
0
255
255
255
255
255
255
255
255
255
255
255
255
255
255
255
115
115
115
0
0
0
37
37
37
203
203
203
250
250
250
203
203
203
37
37
37
0
0
0
0
0
0
255
255
255
255
255
255
255
255
255
255
255
255
255
255
255
233
233
233
24
24
24
0
0
0
0
0
0
0
0
0
0
0
0
76
76
76
0
0
0
4
4
4
255
255
255
255
255
255
255
255
255
255
255
255
255
255
255
255
255
255
218
218
218
75
75
75
10
10
10
14
14
14
97
97
97
221
221
221
0
0
0
21
21
21
255
255
255
255
255
255
255
255
255
255
255
255
255
255
255
255
255
255
255
255
255
255
255
255
255
255
255
255
255
255
255
255
255
158
158
158
0
0
0
64
64
64
255
255
255
255
255
255
255
255
255
255
255
255
255
255
255
255
255
255
79
79
79
197
197
197
248
248
248
240
240
240
164
164
164
16
16
16
0
0
0
147
147
147
255
255
255
255
255
255
255
255
255
255
255
255
255
255
255
255
255
255
0
0
0
0
0
0
0
0
0
0
0
0
0
0
0
0
0
0
51
51
51
249
249
249
255
255
255
255
255
255
255
255
255
255
255
255
255
255
255
255
255
255
181
181
181
69
69
69
15
15
15
6
6
6
35
35
35
117
117
117
241
241
241
255
255
255
255
255
255
255
255
255
255
255
255
255
255
255
255
255
255
255
255
255
255
255
255
255
255
255
255
255
255
255
255
255
255
255
255
255
255
255
255
255
255
255
255
255
255
255
255
255
255
255
255
255
255
255
255
255
255
255
255
255
255
255
255
255
255
255
255
255
255
255
255
255
255
255
255
255
255
255
255
255
255
255
255
255
255
255
255
255
255
255
255
255
255
255
255
255
255
255
255
255
255
255
255
255
255
255
255
255
255
255
255
255
255
255
255
255
255
255
255
255
255
255
255
255
255
255
255
255
255
255
255
255
255
255
255
255
255
255
255
255
255
255
255
255
255
255
255
255
255
255
255
255
255
255
255
255
255
255
255
255
255
255
255
255
255
255
255
255
255
255
255
255
255
255
255
255
255
255
255
255
255
255
255
255
255
