P3
14 22
255
255
255
255
255
255
255
255
255
255
255
255
255
255
255
255
255
255
255
255
255
255
255
255
255
255
255
255
255
255
255
255
255
255
255
255
255
255
255
255
255
255
255
255
255
255
255
255
255
255
255
255
255
255
255
255
255
255
255
255
255
255
255
255
255
255
255
255
255
255
255
255
255
255
255
255
255
255
255
255
255
255
255
255
255
255
255
255
255
255
255
255
255
255
255
255
255
255
255
255
255
255
255
255
255
255
255
255
255
255
255
255
255
255
255
255
255
255
255
255
255
255
255
255
255
255
255
255
255
255
255
255
255
255
255
255
255
255
255
255
255
255
255
255
255
255
255
255
255
255
255
255
255
255
255
255
255
255
255
255
255
255
255
255
255
255
255
255
255
255
255
255
255
255
255
255
255
255
255
255
255
255
255
255
255
255
255
255
255
255
255
255
255
255
255
255
255
255
255
255
255
255
255
255
255
255
255
255
255
255
255
255
255
255
255
255
255
255
255
255
255
255
255
255
255
255
255
255
255
255
255
255
255
255
255
255
255
255
255
255
255
255
255
255
255
255
255
255
255
255
255
255
255
255
255
255
249
249
249
136
136
136
47
47
47
9
9
9
9
9
9
47
47
47
138
138
138
250
250
250
255
255
255
255
255
255
255
255
255
255
255
255
255
255
255
248
248
248
62
62
62
0
0
0
0
0
0
0
0
0
0
0
0
0
0
0
0
0
0
65
65
65
250
250
250
255
255
255
255
255
255
255
255
255
255
255
255
136
136
136
0
0
0
17
17
17
167
167
167
243
243
243
243
243
243
166
166
166
16
16
16
0
0
0
138
138
138
255
255
255
255
255
255
255
255
255
255
255
255
46
46
46
0
0
0
168
168
168
255
255
255
255
255
255
255
255
255
255
255
255
165
165
165
0
0
0
48
48
48
255
255
255
255
255
255
255
255
255
255
255
255
8
8
8
0
0
0
244
244
244
255
255
255
255
255
255
255
255
255
255
255
255
243
243
243
0
0
0
9
9
9
255
255
255
255
255
255
255
255
255
255
255
255
8
8
8
0
0
0
244
244
244
255
255
255
255
255
255
255
255
255
255
255
255
243
243
243
0
0
0
9
9
9
255
255
255
255
255
255
255
255
255
255
255
255
46
46
46
0
0
0
170
170
170
255
255
255
255
255
255
255
255
255
255
255
255
167
167
167
0
0
0
48
48
48
255
255
255
255
255
255
255
255
255
255
255
255
136
136
136
0
0
0
19
19
19
170
170
170
244
244
244
244
244
244
168
168
168
17
17
17
0
0
0
138
138
138
255
255
255
255
255
255
255
255
255
255
255
255
248
248
248
61
61
61
0
0
0
0
0
0
0
0
0
0
0
0
0
0
0
0
0
0
64
64
64
249
249
249
255
255
255
255
255
255
255
255
255
255
255
255
255
255
255
248
248
248
136
136
136
46
46
46
8
8
8
9
9
9
46
46
46
137
137
137
249
249
249
255
255
255
255
255
255
255
255
255
255
255
255
255
255
255
255
255
255
255
255
255
255
255
255
255
255
255
255
255
255
255
255
255
255
255
255
255
255
255
255
255
255
255
255
255
255
255
255
255
255
255
255
255
255
255
255
255
255
255
255
255
255
255
255
255
255
255
255
255
255
255
255
255
255
255
255
255
255
255
255
255
255
255
255
255
255
255
255
255
255
255
255
255
255
255
255
255
255
255
255
255
255
255
255
255
255
255
255
255
255
255
255
255
255
255
255
255
255
255
255
255
255
255
255
255
255
255
255
255
255
255
255
255
255
255
255
255
255
255
255
255
255
255
255
255
255
255
255
255
255
255
255
255
255
255
255
255
255
255
255
255
255
255
255
255
255
255
255
255
255
255
255
255
255
255
255
255
255
255
255
255
255
255
255
255
255
255
255
255
255
255
255
255
255
255
255
255
255
255
255
255
255
255
255
255
255
255
255
255
255
255
255
255
255
255
255
255
255
255
255
255
255
255
255
255
255
255
255
255
255
255
255
255
255
255
255
255
255
255
255
255
255
255
255
255
255
255
255
255
255
255
255
255
255
255
255
255
255
255
255
255
255
255
255
255
255
255
