P3
14 22
255
255
255
255
255
255
255
255
255
255
255
255
255
255
255
255
255
255
255
255
255
255
255
255
255
255
255
255
255
255
255
255
255
255
255
255
255
255
255
255
255
255
255
255
255
255
255
255
255
255
255
255
255
255
255
255
255
255
255
255
255
255
255
255
255
255
255
255
255
255
255
255
255
255
255
255
255
255
255
255
255
255
255
255
255
255
255
255
255
255
255
255
255
255
255
255
255
255
255
255
255
255
255
255
255
255
255
255
255
255
255
255
255
255
255
255
255
255
255
255
255
255
255
255
255
255
255
255
255
255
255
255
255
255
255
255
255
255
255
255
255
255
255
255
255
255
255
255
255
255
255
255
255
255
255
255
255
255
255
255
255
255
255
255
255
255
255
255
255
0
0
0
0
0
0
242
242
242
97
97
97
14
14
14
12
12
12
80
80
80
223
223
223
255
255
255
255
255
255
255
255
255
255
255
255
255
255
255
255
255
255
0
0
0
0
0
0
78
78
78
0
0
0
0
0
0
0
0
0
0
0
0
28
28
28
237
237
237
255
255
255
255
255
255
255
255
255
255
255
255
255
255
255
0
0
0
0
0
0
35
35
35
201
201
201
249
249
249
200
200
200
33
33
33
0
0
0
118
118
118
255
255
255
255
255
255
255
255
255
255
255
255
255
255
255
0
0
0
0
0
0
185
185
185
255
255
255
255
255
255
255
255
255
183
183
183
0
0
0
41
41
41
255
255
255
255
255
255
255
255
255
255
255
255
255
255
255
0
0
0
0
0
0
246
246
246
255
255
255
255
255
255
255
255
255
245
245
245
0
0
0
8
8
8
255
255
255
255
255
255
255
255
255
255
255
255
255
255
255
0
0
0
0
0
0
246
246
246
255
255
255
255
255
255
255
255
255
245
245
245
0
0
0
8
8
8
255
255
255
255
255
255
255
255
255
255
255
255
255
255
255
0
0
0
0
0
0
185
185
185
255
255
255
255
255
255
255
255
255
183
183
183
0
0
0
41
41
41
255
255
255
255
255
255
255
255
255
255
255
255
255
255
255
0
0
0
0
0
0
36
36
36
201
201
201
250
250
250
200
200
200
34
34
34
0
0
0
118
118
118
255
255
255
255
255
255
255
255
255
255
255
255
255
255
255
0
0
0
0
0
0
77
77
77
0
0
0
0
0
0
0
0
0
0
0
0
28
28
28
237
237
237
255
255
255
255
255
255
255
255
255
255
255
255
255
255
255
0
0
0
0
0
0
241
241
241
98
98
98
17
17
17
11
11
11
79
79
79
222
222
222
255
255
255
255
255
255
255
255
255
255
255
255
255
255
255
255
255
255
0
0
0
0
0
0
255
255
255
255
255
255
255
255
255
255
255
255
255
255
255
255
255
255
255
255
255
255
255
255
255
255
255
255
255
255
255
255
255
255
255
255
0
0
0
0
0
0
255
255
255
255
255
255
255
255
255
255
255
255
255
255
255
255
255
255
255
255
255
255
255
255
255
255
255
255
255
255
255
255
255
255
255
255
0
0
0
0
0
0
255
255
255
255
255
255
255
255
255
255
255
255
255
255
255
255
255
255
255
255
255
255
255
255
255
255
255
255
255
255
255
255
255
255
255
255
0
0
0
0
0
0
255
255
255
255
255
255
255
255
255
255
255
255
255
255
255
255
255
255
255
255
255
255
255
255
255
255
255
255
255
255
255
255
255
255
255
255
255
255
255
255
255
255
255
255
255
255
255
255
255
255
255
255
255
255
255
255
255
255
255
255
255
255
255
255
255
255
255
255
255
255
255
255
255
255
255
255
255
255
255
255
255
255
255
255
255
255
255
255
255
255
255
255
255
255
255
255
255
255
255
255
255
255
255
255
255
255
255
255
255
255
255
255
255
255
255
255
255
255
255
255
255
255
255
255
255
255
255
255
255
255
255
255
255
255
255
255
255
255
255
255
255
255
255
255
255
255
255
255
255
255
255
255
255
255
255
255
255
255
255
255
255
255
255
255
255
255
255
255
255
255
255
255
255
255
255
255
255
255
255
255
255
255
255
255
255
255
255
255
255
255
255
255
255
255
255
255
255
255
255
255
255
255
255
255
