P3
14 22
255
255
255
255
255
255
255
255
255
255
255
255
255
255
255
255
255
255
255
255
255
255
255
255
255
255
255
255
255
255
255
255
255
255
255
255
255
255
255
255
255
255
255
255
255
255
255
255
255
255
255
255
255
255
255
255
255
255
255
255
255
255
255
255
255
255
255
255
255
255
255
255
255
255
255
255
255
255
255
255
255
255
255
255
255
255
255
255
255
255
255
255
255
255
255
255
255
255
255
255
255
255
255
255
255
255
255
255
255
255
255
255
255
255
255
255
255
255
255
255
255
255
255
255
255
255
255
255
255
255
255
255
255
255
255
255
255
255
255
255
255
255
255
255
255
255
255
255
255
255
255
255
255
255
255
255
255
255
255
255
255
255
255
255
255
255
255
255
255
255
255
255
255
255
255
255
255
255
255
255
255
255
255
255
255
255
255
255
255
255
255
255
255
255
255
255
255
255
255
255
255
255
255
255
255
255
255
255
255
255
255
255
255
255
255
255
255
255
255
255
255
255
255
255
255
255
255
255
255
255
255
255
255
255
255
255
255
255
255
255
255
255
255
255
255
255
255
255
255
255
255
255
255
7
7
7
3
3
3
231
231
231
255
255
255
255
255
255
255
255
255
255
255
255
244
244
244
15
15
15
22
22
22
250
250
250
255
255
255
255
255
255
255
255
255
88
88
88
0
0
0
142
142
142
255
255
255
255
255
255
255
255
255
255
255
255
156
156
156
0
0
0
116
116
116
255
255
255
255
255
255
255
255
255
255
255
255
190
190
190
0
0
0
50
50
50
255
255
255
255
255
255
255
255
255
255
255
255
52
52
52
0
0
0
215
215
215
255
255
255
255
255
255
255
255
255
255
255
255
255
255
255
37
37
37
0
0
0
214
214
214
255
255
255
255
255
255
205
205
205
0
0
0
58
58
58
255
255
255
255
255
255
255
255
255
255
255
255
255
255
255
255
255
255
138
138
138
0
0
0
123
123
123
255
255
255
255
255
255
102
102
102
0
0
0
156
156
156
255
255
255
255
255
255
255
255
255
255
255
255
255
255
255
255
255
255
234
234
234
6
6
6
33
33
33
254
254
254
242
242
242
12
12
12
12
12
12
243
243
243
255
255
255
255
255
255
255
255
255
255
255
255
255
255
255
255
255
255
255
255
255
86
86
86
0
0
0
195
195
195
151
151
151
0
0
0
98
98
98
255
255
255
255
255
255
255
255
255
255
255
255
255
255
255
255
255
255
255
255
255
255
255
255
188
188
188
0
0
0
103
103
103
48
48
48
0
0
0
197
197
197
255
255
255
255
255
255
255
255
255
255
255
255
255
255
255
255
255
255
255
255
255
255
255
255
254
254
254
36
36
36
7
7
7
0
0
0
40
40
40
255
255
255
255
255
255
255
255
255
255
255
255
255
255
255
255
255
255
255
255
255
255
255
255
255
255
255
255
255
255
136
136
136
0
0
0
0
0
0
138
138
138
255
255
255
255
255
255
255
255
255
255
255
255
255
255
255
255
255
255
255
255
255
255
255
255
255
255
255
255
255
255
255
255
255
255
255
255
255
255
255
255
255
255
255
255
255
255
255
255
255
255
255
255
255
255
255
255
255
255
255
255
255
255
255
255
255
255
255
255
255
255
255
255
255
255
255
255
255
255
255
255
255
255
255
255
255
255
255
255
255
255
255
255
255
255
255
255
255
255
255
255
255
255
255
255
255
255
255
255
255
255
255
255
255
255
255
255
255
255
255
255
255
255
255
255
255
255
255
255
255
255
255
255
255
255
255
255
255
255
255
255
255
255
255
255
255
255
255
255
255
255
255
255
255
255
255
255
255
255
255
255
255
255
255
255
255
255
255
255
255
255
255
255
255
255
255
255
255
255
255
255
255
255
255
255
255
255
255
255
255
255
255
255
255
255
255
255
255
255
255
255
255
255
255
255
255
255
255
255
255
255
255
255
255
255
255
255
255
255
255
255
255
255
255
255
255
255
255
255
255
255
255
255
255
255
255
255
255
255
255
255
255
255
255
255
255
255
255
255
255
255
255
255
255
255
255
255
255
255
255
255
255
255
255
255
255
255
255
255
255
255
255
255
255
