P3
14 22
255
255
255
255
255
255
255
255
255
255
255
255
255
255
255
255
255
255
255
255
255
255
255
255
255
255
255
255
255
255
255
255
255
255
255
255
255
255
255
255
255
255
255
255
255
255
255
255
255
255
255
255
255
255
255
255
255
255
255
255
255
255
255
255
255
255
255
255
255
255
255
255
255
255
255
255
255
255
255
255
255
255
255
255
255
255
255
255
255
255
255
255
255
255
255
255
255
255
255
255
255
255
255
255
255
255
255
255
255
255
255
255
255
255
255
255
255
255
255
255
255
255
255
255
255
255
255
255
255
255
255
255
255
255
255
255
255
255
255
255
255
255
255
255
255
255
255
255
255
255
255
255
255
255
255
255
255
255
255
255
255
255
255
255
255
255
255
255
255
255
255
255
255
255
255
255
255
255
255
255
255
255
255
255
255
255
255
255
255
255
255
255
255
255
255
255
255
255
255
255
255
255
255
255
255
255
255
255
255
255
255
255
255
255
255
255
255
255
255
255
255
255
255
255
255
255
255
255
255
255
255
255
255
255
255
255
255
255
255
255
255
255
255
255
255
255
255
255
255
255
255
255
255
6
6
6
2
2
2
243
243
243
255
255
255
255
255
255
47
47
47
0
0
0
48
48
48
255
255
255
255
255
255
243
243
243
2
2
2
7
7
7
247
247
247
59
59
59
0
0
0
191
191
191
255
255
255
238
238
238
2
2
2
0
0
0
2
2
2
240
240
240
255
255
255
192
192
192
0
0
0
60
60
60
255
255
255
121
121
121
0
0
0
138
138
138
255
255
255
177
177
177
0
0
0
34
34
34
0
0
0
180
180
180
255
255
255
139
139
139
0
0
0
122
122
122
255
255
255
182
182
182
0
0
0
84
84
84
255
255
255
113
113
113
0
0
0
166
166
166
0
0
0
118
118
118
255
255
255
86
86
86
0
0
0
183
183
183
255
255
255
241
241
241
3
3
3
31
31
31
255
255
255
50
50
50
26
26
26
254
254
254
25
25
25
55
55
55
255
255
255
34
34
34
3
3
3
242
242
242
255
255
255
255
255
255
50
50
50
0
0
0
218
218
218
2
2
2
95
95
95
255
255
255
94
94
94
5
5
5
225
225
225
0
0
0
50
50
50
255
255
255
255
255
255
255
255
255
111
111
111
0
0
0
103
103
103
0
0
0
164
164
164
255
255
255
163
163
163
0
0
0
116
116
116
0
0
0
112
112
112
255
255
255
255
255
255
255
255
255
173
173
173
0
0
0
8
8
8
1
1
1
233
233
233
255
255
255
232
232
232
1
1
1
15
15
15
0
0
0
174
174
174
255
255
255
255
255
255
255
255
255
234
234
234
0
0
0
0
0
0
47
47
47
255
255
255
255
255
255
255
255
255
46
46
46
0
0
0
0
0
0
234
234
234
255
255
255
255
255
255
255
255
255
255
255
255
40
40
40
0
0
0
117
117
117
255
255
255
255
255
255
255
255
255
116
116
116
0
0
0
41
41
41
255
255
255
255
255
255
255
255
255
255
255
255
255
255
255
255
255
255
255
255
255
255
255
255
255
255
255
255
255
255
255
255
255
255
255
255
255
255
255
255
255
255
255
255
255
255
255
255
255
255
255
255
255
255
255
255
255
255
255
255
255
255
255
255
255
255
255
255
255
255
255
255
255
255
255
255
255
255
255
255
255
255
255
255
255
255
255
255
255
255
255
255
255
255
255
255
255
255
255
255
255
255
255
255
255
255
255
255
255
255
255
255
255
255
255
255
255
255
255
255
255
255
255
255
255
255
255
255
255
255
255
255
255
255
255
255
255
255
255
255
255
255
255
255
255
255
255
255
255
255
255
255
255
255
255
255
255
255
255
255
255
255
255
255
255
255
255
255
255
255
255
255
255
255
255
255
255
255
255
255
255
255
255
255
255
255
255
255
255
255
255
255
255
255
255
255
255
255
255
255
255
255
255
255
255
255
255
255
255
255
255
255
255
255
255
255
255
255
255
255
255
255
255
255
255
255
255
255
255
255
255
255
255
255
255
255
255
255
255
255
255
255
255
255
255
255
255
255
255
255
255
255
255
255
255
255
255
255
255
255
255
