P3
14 22
255
255
255
255
255
255
255
255
255
255
255
255
255
255
255
255
255
255
255
255
255
255
255
255
255
255
255
255
255
255
255
255
255
255
255
255
255
255
255
255
255
255
255
255
255
255
255
255
255
255
255
255
255
255
255
255
255
255
255
255
255
255
255
255
255
255
255
255
255
255
255
255
255
255
255
255
255
255
255
255
255
255
255
255
255
255
255
255
255
255
255
255
255
255
255
255
255
255
255
255
255
255
255
255
255
255
255
255
255
255
255
255
255
255
255
255
255
255
255
255
255
255
255
255
255
255
255
255
255
255
255
255
255
255
255
255
255
255
255
255
255
255
255
255
255
255
255
255
255
255
255
255
255
255
255
255
255
255
255
255
255
255
255
255
255
255
255
255
255
255
255
255
255
255
255
255
255
255
255
255
255
255
255
255
255
255
255
255
255
255
255
255
255
255
255
255
255
255
255
255
255
255
255
255
255
255
255
255
255
255
255
255
255
255
255
255
255
255
255
255
255
255
255
255
255
255
255
255
255
255
255
255
255
255
255
255
255
255
255
255
255
255
255
255
255
255
255
255
255
255
255
255
255
87
87
87
0
0
0
44
44
44
254
254
254
255
255
255
255
255
255
254
254
254
44
44
44
0
0
0
90
90
90
255
255
255
255
255
255
255
255
255
255
255
255
237
237
237
26
26
26
0
0
0
168
168
168
255
255
255
255
255
255
167
167
167
0
0
0
31
31
31
240
240
240
255
255
255
255
255
255
255
255
255
255
255
255
255
255
255
183
183
183
0
0
0
40
40
40
253
253
253
252
252
252
39
39
39
2
2
2
194
194
194
255
255
255
255
255
255
255
255
255
255
255
255
255
255
255
255
255
255
255
255
255
105
105
105
0
0
0
162
162
162
161
161
161
0
0
0
122
122
122
255
255
255
255
255
255
255
255
255
255
255
255
255
255
255
255
255
255
255
255
255
255
255
255
245
245
245
35
35
35
35
35
35
35
35
35
48
48
48
250
250
250
255
255
255
255
255
255
255
255
255
255
255
255
255
255
255
255
255
255
255
255
255
255
255
255
231
231
231
17
17
17
29
29
29
14
14
14
22
22
22
235
235
235
255
255
255
255
255
255
255
255
255
255
255
255
255
255
255
255
255
255
255
255
255
255
255
255
79
79
79
0
0
0
161
161
161
135
135
135
0
0
0
87
87
87
255
255
255
255
255
255
255
255
255
255
255
255
255
255
255
255
255
255
255
255
255
166
166
166
0
0
0
44
44
44
253
253
253
247
247
247
30
30
30
0
0
0
172
172
172
255
255
255
255
255
255
255
255
255
255
255
255
255
255
255
233
233
233
20
20
20
0
0
0
179
179
179
255
255
255
255
255
255
165
165
165
0
0
0
22
22
22
235
235
235
255
255
255
255
255
255
255
255
255
255
255
255
84
84
84
0
0
0
59
59
59
255
255
255
255
255
255
255
255
255
254
254
254
53
53
53
0
0
0
85
85
85
255
255
255
255
255
255
255
255
255
255
255
255
255
255
255
255
255
255
255
255
255
255
255
255
255
255
255
255
255
255
255
255
255
255
255
255
255
255
255
255
255
255
255
255
255
255
255
255
255
255
255
255
255
255
255
255
255
255
255
255
255
255
255
255
255
255
255
255
255
255
255
255
255
255
255
255
255
255
255
255
255
255
255
255
255
255
255
255
255
255
255
255
255
255
255
255
255
255
255
255
255
255
255
255
255
255
255
255
255
255
255
255
255
255
255
255
255
255
255
255
255
255
255
255
255
255
255
255
255
255
255
255
255
255
255
255
255
255
255
255
255
255
255
255
255
255
255
255
255
255
255
255
255
255
255
255
255
255
255
255
255
255
255
255
255
255
255
255
255
255
255
255
255
255
255
255
255
255
255
255
255
255
255
255
255
255
255
255
255
255
255
255
255
255
255
255
255
255
255
255
255
255
255
255
255
255
255
255
255
255
255
255
255
255
255
255
255
255
255
255
255
255
255
255
255
255
255
255
255
255
255
255
255
255
255
255
255
255
255
255
255
255
255
255
255
255
255
255
255
255
255
255
255
255
255
255
255
255
255
255
255
255
255
255
